<svg width="115" height="112" viewBox="0 0 115 112" fill="none" xmlns="http://www.w3.org/2000/svg">
<g clip-path="url(#clip0_67_106)">
<path d="M10.5882 104.555L10.5063 104.226C9.62486 105.819 8.1344 106.45 6.28738 106.45C2.37189 106.45 0 103.813 0 99.6648C0 95.5162 2.39846 92.7424 6.28738 92.7424C7.94173 92.7424 9.34803 93.2919 10.2582 94.638V87.2213C10.2582 85.9017 10.5882 85.5729 11.886 85.5729H12.5482C13.8991 85.5729 14.2025 85.9017 14.2025 87.2213V104.528C14.2025 105.848 13.8991 106.177 12.5482 106.177C11.1973 106.177 10.8673 105.848 10.5904 104.555H10.5882ZM7.05808 96.0922C5.1557 96.0922 3.99744 97.5486 3.99744 99.6626C3.99744 101.887 5.21107 103.096 7.14002 103.096C8.96046 103.096 10.2272 101.916 10.2272 99.689C10.2272 97.4625 8.90288 96.09 7.05587 96.09L7.05808 96.0922Z" fill="#573C2B"/>
<path d="M29.3086 99.4175V99.775C29.3086 101.095 29.0052 101.423 27.6809 101.423H20.1533C20.5674 102.522 21.4777 103.127 23.1032 103.127C24.4541 103.127 25.3356 102.88 26.0265 102.522C26.6046 102.246 26.9633 102.083 27.2402 102.083C27.517 102.083 27.7097 102.249 28.0131 102.522L28.7018 103.182C29.0052 103.484 29.1713 103.758 29.1713 104.034C29.1713 104.336 28.9787 104.639 28.5645 104.941C27.4882 105.793 25.918 106.452 23.132 106.452C18.8024 106.452 15.9078 104.034 15.9078 99.6117C15.9078 95.9023 18.3063 92.7445 22.6071 92.7445C27.1294 92.7445 29.3064 95.9045 29.3064 99.4197L29.3086 99.4175ZM20.016 98.1531H25.2824C24.9524 96.807 23.9868 96.0656 22.6071 96.0656C21.2274 96.0656 20.3194 96.7518 20.016 98.1531Z" fill="#573C2B"/>
<path d="M34.4931 99.6647C34.4931 101.836 35.7333 102.961 37.5803 102.961C38.2137 102.961 38.8759 102.851 39.3166 102.604C39.7308 102.383 40.0342 102.275 40.2822 102.275C40.5856 102.275 40.8602 102.441 41.2744 102.825L41.6332 103.153C42.0473 103.566 42.24 103.924 42.24 104.252C42.24 104.581 42.0473 104.912 41.6619 105.186C40.2556 106.203 38.8493 106.45 37.5272 106.45C33.1444 106.45 30.5511 104.06 30.5511 99.6647C30.5511 95.269 33.171 92.7423 37.4718 92.7423C39.0154 92.7423 40.2844 93.1263 41.4981 94.0067C41.7195 94.1722 42.1049 94.501 42.1049 94.9402C42.1049 95.2138 41.9676 95.5161 41.5534 95.9023L40.9466 96.4517C40.5613 96.7805 40.2291 96.946 39.8703 96.946C39.5957 96.946 39.2923 96.8644 38.9889 96.6702C38.5747 96.423 38.134 96.2311 37.5272 96.2311C35.6248 96.2311 34.4953 97.4955 34.4953 99.6647H34.4931Z" fill="#573C2B"/>
<path d="M50.0156 106.45C45.7148 106.45 42.8756 104.142 42.8756 99.636C42.8756 95.1299 45.6882 92.7401 50.0156 92.7401C54.343 92.7401 57.2398 95.1299 57.2398 99.636C57.2398 104.142 54.4006 106.45 50.0156 106.45ZM50.0156 103.07C51.9446 103.07 53.2136 101.86 53.2136 99.636C53.2136 97.4116 51.9446 96.1185 50.0156 96.1185C48.0866 96.1185 46.8996 97.4094 46.8996 99.636C46.8996 101.863 48.1398 103.07 50.0156 103.07Z" fill="#573C2B"/>
<path d="M58.9473 94.6908C58.9473 93.3712 59.2772 93.0424 60.6016 93.0424H61.2638C62.4486 93.0424 62.8628 93.3182 62.9181 94.362C63.8837 93.2079 65.29 92.7401 66.8602 92.7401C70.2242 92.7401 72.9261 94.8011 72.9261 99.636C72.9261 104.471 70.1977 106.45 66.7229 106.45C65.2059 106.45 63.8837 106.066 62.9181 104.994V110.352C62.9181 111.671 62.5881 112 61.2638 112H60.6016C59.2772 112 58.9473 111.671 58.9473 110.352V94.693V94.6908ZM65.7573 103.098C67.6597 103.098 68.8999 101.807 68.8999 99.6647C68.8999 97.522 67.6597 96.0943 65.7573 96.0943C63.8549 96.0943 62.5859 97.5771 62.5859 99.7198C62.5859 101.863 63.8815 103.098 65.7573 103.098Z" fill="#573C2B"/>
<path d="M85.2794 106.174H85.2529C84.0126 106.174 83.6539 105.927 83.3239 104.91C82.6351 105.843 81.0627 106.448 78.9411 106.448C75.8805 106.448 74.1442 105.047 74.1442 102.299C74.1442 99.7993 75.9358 98.0957 80.5689 98.0957H82.8566C82.6905 96.9151 82.0305 96.4473 80.4581 96.4473C79.0784 96.4473 78.5558 96.6128 77.9224 96.9416C77.2048 97.2991 76.9856 97.2704 76.1573 96.5841L75.6324 96.145C75.2471 95.8162 75.081 95.4852 75.081 95.2116C75.081 94.6621 75.6324 94.2495 75.9624 94.0023C77.1472 93.2057 78.5535 92.7379 80.4294 92.7379C83.82 92.7379 86.7987 94.2208 86.7987 98.6165V104.524C86.7987 105.843 86.606 106.172 85.2816 106.172L85.2794 106.174ZM82.9075 101.313V100.929H80.5644C78.8547 100.929 78.0818 101.342 78.0818 102.11C78.0818 102.961 78.9101 103.29 79.8469 103.29C81.5012 103.29 82.8256 102.851 82.9075 101.313Z" fill="#573C2B"/>
<path d="M92.3087 99.6647C92.3087 101.836 93.5489 102.961 95.3959 102.961C96.0293 102.961 96.6915 102.851 97.1322 102.604C97.5463 102.383 97.8498 102.275 98.0978 102.275C98.4012 102.275 98.6758 102.441 99.09 102.825L99.4487 103.153C99.8629 103.566 100.056 103.924 100.056 104.252C100.056 104.581 99.8629 104.912 99.4775 105.186C98.0712 106.203 96.6649 106.45 95.3428 106.45C90.96 106.45 88.3666 104.06 88.3666 99.6647C88.3666 95.269 90.9866 92.7423 95.2874 92.7423C96.831 92.7423 98.1 93.1263 99.3136 94.0067C99.5351 94.1722 99.9205 94.501 99.9205 94.9402C99.9205 95.2138 99.7831 95.5161 99.369 95.9023L98.7622 96.4517C98.3768 96.7805 98.0446 96.946 97.6859 96.946C97.4113 96.946 97.1078 96.8644 96.8044 96.6702C96.3903 96.423 95.9496 96.2311 95.3428 96.2311C93.4404 96.2311 92.3109 97.4955 92.3109 99.6647H92.3087Z" fill="#573C2B"/>
<path d="M101.683 87.219C101.683 85.8994 102.013 85.5706 103.338 85.5706H104C105.324 85.5706 105.654 85.8994 105.654 87.219V98.5657L109.266 94.3068C110.121 93.2896 110.644 93.0424 111.997 93.0424H113.678C114.451 93.0424 114.807 93.1241 114.807 93.3712C114.807 93.5632 114.615 93.839 114.229 94.2495L109.955 98.8923L114.533 104.855C114.836 105.267 115.002 105.596 115.002 105.788C115.002 106.091 114.643 106.172 113.844 106.172H112.272C110.947 106.172 110.425 105.896 109.625 104.853L107.309 101.748L105.654 103.533V104.522C105.654 105.841 105.324 106.17 104 106.17H103.338C102.013 106.17 101.683 105.841 101.683 104.522V87.2146V87.219Z" fill="#573C2B"/>
<path d="M30.7681 19.4541L61.4388 35.7636L90.9046 21.1709L88.1474 17.2209C88.1474 17.2209 62.6457 4.17283 62.1275 4.34495C61.6115 4.51707 30.7681 19.4541 30.7681 19.4541Z" fill="#C99756"/>
<path d="M29.3884 19.9682L29.5611 54.1343L32.3183 58.0842L59.7157 71.1323L61.6115 66.154V42.1167L61.0933 36.4521L30.0771 19.282" fill="#C99756"/>
<path d="M63.9612 69.9186L74.813 64.1923L61.8263 57.6274C61.3834 57.4046 60.8607 57.4001 60.4156 57.6186L60.3093 57.6694C60.3115 61.8422 60.3137 65.6222 60.3181 67.606C60.3181 68.5593 59.8353 69.4243 59.0203 69.923C58.5531 70.2099 58.026 70.3445 57.4989 70.3247C59.5807 71.1036 61.9924 70.9536 63.959 69.9164L63.9612 69.9186Z" fill="#573C2B"/>
<path d="M89.8084 71.7744L78.7794 66.1982L65.6621 73.1183C64.0099 73.99 62.1474 74.4512 60.2761 74.4512C58.4047 74.4512 56.5865 74.001 54.9476 73.1492L42.209 66.5203L33.1289 70.9602C31.9706 71.5273 31.9463 73.1624 33.0868 73.7627L57.3306 86.5349C59.2839 87.5632 61.6093 87.625 63.6135 86.696L89.7574 74.6012C90.9534 74.0473 90.9821 72.3658 89.8062 71.77L89.8084 71.7744Z" fill="#573C2B"/>
<path d="M87.5472 14.9436L65.1416 4.26772C62.5549 3.03418 59.574 3.00329 56.9607 4.18386L32.9163 15.0363C29.457 16.5964 27.2224 20.0499 27.2224 23.8321V50.8286C27.2224 54.4388 29.2178 57.7179 32.4269 59.3884L55.787 71.5427C57.1933 72.2732 58.7324 72.6395 60.2738 72.6395C61.8152 72.6395 63.3899 72.2643 64.8094 71.5163L87.8993 59.3332C91.0796 57.6539 93.0551 54.3858 93.0551 50.7978V23.6534C93.0551 19.955 90.8913 16.5369 87.545 14.9414L87.5472 14.9436ZM57.1844 68.4181C52.0774 65.8319 33.9705 56.4491 33.9705 56.4491C31.8621 55.3523 30.5533 53.2008 30.5533 50.8309V23.8343C30.5533 22.9075 31.5388 22.3117 32.3649 22.7376L33.0802 23.1061C33.089 23.0113 33.12 22.9142 33.1732 22.8193C33.3614 22.4839 33.8642 22.3029 34.203 22.5302C35.6514 23.4967 37.1706 24.3485 38.7253 25.1297C41.5158 26.5331 44.4081 27.7247 47.2561 29.009C50.195 30.3352 53.0519 31.8468 55.8667 33.4202C56.489 33.7688 56.2587 34.5654 55.756 34.7817L55.8069 34.8082C57.4502 35.6555 58.4844 37.3458 58.4844 39.1884C58.4844 39.1884 58.4911 61.6171 58.5021 67.6149C58.5021 68.2901 57.789 68.727 57.1844 68.4225V68.4181ZM85.5142 47.1104C85.5142 47.9798 85.0137 48.772 84.2275 49.1472L69.9851 55.9459C68.5101 56.6499 66.796 55.6127 66.7428 53.9842L66.3464 42.0086C66.3176 41.1038 66.8314 40.2697 67.6553 39.8879L82.2941 33.1046C83.7956 32.4095 85.5142 33.5018 85.5142 35.1524V47.1126V47.1104ZM88.6169 20.1249C88.3644 20.1668 88.1164 20.2375 87.8772 20.339L62.3069 32.3279C60.9715 32.9545 59.4168 32.9259 58.1057 32.2506L34.2451 19.966C33.4567 19.56 33.4855 18.4258 34.2938 18.0595L58.3382 7.20701C60.0524 6.43247 62.0101 6.45454 63.7065 7.26218L86.1121 17.9381C87.1464 18.4302 88.0034 19.1893 88.6258 20.1073C88.6302 20.1139 88.6258 20.1249 88.6169 20.1249Z" fill="#573C2B"/>
<path d="M32.3671 22.7354L57.1556 35.7283L58.7169 33.8814C58.7169 33.8814 40.3708 24.7413 39.981 24.6442C39.5912 24.5471 35.8817 22.4088 35.4919 22.1153C35.1022 21.8241 32.3649 22.7354 32.3649 22.7354H32.3671Z" fill="#573C2B"/>
<path d="M63.8837 38.18L64.8316 60.2556C64.8316 60.2556 88.7653 48.8051 88.7653 48.3329C88.7653 47.8607 88.174 32.6324 88.174 32.6324L88.2913 26.0212L64.7142 37.1186" fill="#573C2B"/>
<path d="M26.6799 17.4019C26.4429 17.7549 24.7841 23.8939 24.7841 23.8939L25.8494 28.4971L59.6161 44.789L59.9704 35.2274L26.6799 17.4019Z" fill="#573C2B"/>
<path d="M95.5177 19.4077V28.7332L60.4466 45.4973L59.9727 35.2274L95.5177 19.4077Z" fill="#C99756"/>
<path d="M26.0863 17.1658L60.6836 34.9913L95.1612 18.3463L92.5546 15.396L61.0401 0.754684C61.0401 0.754684 32.4867 13.2688 32.1301 13.3857C31.7735 13.5027 26.0885 17.1636 26.0885 17.1636L26.0863 17.1658Z" fill="#C99756"/>
<path d="M91.414 13.0768L65.4561 1.09892C62.2715 -0.370724 58.6195 -0.36631 55.4371 1.11216L28.8259 13.4806C25.7563 14.9061 23.7742 18.0087 23.7742 21.3827V26.4095C23.7742 28.0006 24.6645 29.4283 26.0974 30.1322L56.4447 45.0538C57.9197 45.7798 59.5386 46.1417 61.1575 46.1417C62.7764 46.1417 64.3931 45.7798 65.868 45.0538L94.3085 31.0789C96.0404 30.2271 97.1167 28.5037 97.1167 26.5795V21.9719C97.1167 18.1676 94.8777 14.6766 91.414 13.0768ZM29.9797 15.941L56.5909 3.57261C57.82 3.00108 59.1422 2.71421 60.4621 2.71421C61.782 2.71421 63.0887 2.99667 64.3111 3.56158L90.269 15.5394C91.4782 16.0977 92.4792 16.976 93.1924 18.044L62.9846 33.0936C61.3369 33.9145 59.388 33.8814 57.758 32.9987L28.0839 17.3357C28.611 16.7597 29.2488 16.2809 29.9797 15.941ZM27.3044 27.696C26.8105 27.4533 26.5027 26.959 26.5027 26.4095V21.3827C26.5027 20.8068 26.5868 20.2419 26.7463 19.7034L56.4713 35.3951C57.1888 35.7835 57.9507 36.0571 58.7302 36.2204V43.0479C58.3626 42.9309 58.0038 42.7897 57.6539 42.6176L27.3044 27.696ZM94.3927 26.5772C94.3927 27.4599 93.8988 28.2521 93.1038 28.6427L64.6633 42.6176C63.6556 43.1119 62.5571 43.3789 61.4542 43.4186V36.3462C62.3999 36.2337 63.3301 35.9623 64.2048 35.5253L94.2465 20.5596C94.3418 21.0208 94.3927 21.4931 94.3927 21.9719V26.5795V26.5772Z" fill="#573C2B"/>
</g>
<defs>
<clipPath id="clip0_67_106">
<rect width="115" height="112" fill="white"/>
</clipPath>
</defs>
</svg>
